<?xml version="1.0" encoding="iso-8859-1"?>
<!-- Uploaded to: SVG Repo, www.svgrepo.com, Generator: SVG Repo Mixer Tools -->
<svg fill="#000000" height="800px" width="800px" version="1.1" id="Capa_1" xmlns="http://www.w3.org/2000/svg" xmlns:xlink="http://www.w3.org/1999/xlink" 
	 viewBox="0 0 490.415 490.415" xml:space="preserve">
<g>
	<g>
		<path d="M466.967,169.168c-40.3-37.8-106.8-24.3-153.4,21.8c-41.8,43.4-55.8,97.9-35.2,135.1c-9.3,5.4-22,12.8-24.9,14.2
			c-21.8,12.4-44.8,32.4-38.3,73.6c-6.5,12-23.5,40.3-48.7,34.2c-11.4-1-21.8,7.3-22.8,18.7s7.3,21.8,18.7,22.8
			c24.4,3.6,46.6-4.2,66.3-24.9c9.3-9.3,34.4-29,28-71.5c1-5.2,7.3-11.4,17.6-17.6c2.6-1.7,22.7-10.4,35.3-19.6
			c38.7,20.5,89.8,7.5,135.7-34.3C491.467,272.068,506.767,214.168,466.967,169.168z M416.167,292.568c-38.2,33.8-70.1,40-96.4,21.8
			c-19.5-26-8.9-57.7,21.8-93.3c32.3-28.9,73.8-43.6,96.4-21.8C459.167,228.168,443.867,259.868,416.167,292.568z"/>
		<path d="M133.567,170.468c31.6,15.5,72.9,5.7,108.5-28.2c39.4-41.9,46.9-91.9,16.6-123.3c-35.7-31.6-82.2-22.1-125.4,16.5
			c-29.5,31.6-44.9,73.6-29.8,105.3c-6.4,3.6-13.9,7.5-15.8,8.7c-22.8,12.4-30.1,28-32.1,39.4c-1,6.2,0,20.7,0,21.8
			c-1,4.1-14,19.1-20.7,21.8c-2.2,0.8-7.3,0-11.4,0c-11.4-1-21.8,7.3-22.8,18.7c-1,11.4,7.3,21.8,18.7,22.8
			c19.5,2.7,37.3-3,52.9-19.7c30.3-25.8,22.5-58.1,22.8-59.1C98.267,184.468,119.167,179.668,133.567,170.468z M162.267,64.568
			c20.4-18.7,46.3-30.7,67.4-16.6c13.1,20.3,4,42.3-17.6,65.3c-23.5,19.4-46.3,30.4-67.4,16.6
			C132.467,111.468,140.467,89.268,162.267,64.568z"/>
	</g>
</g>
</svg>